<svg width="124" height="125" viewBox="0 0 124 125" fill="none" xmlns="http://www.w3.org/2000/svg">
<path fill-rule="evenodd" clip-rule="evenodd" d="M62.0282 0.25C27.8586 0.25 0 28.0691 0 62.2331C0 96.3971 27.8642 124.25 62.0282 124.25C96.1921 124.25 124 96.3971 124 62.2331C124 28.0691 96.1921 0.25 62.0282 0.25ZM62.0282 11.5197C68.6905 11.5085 75.2896 12.8127 81.4468 15.3575C87.6041 17.9023 93.1984 21.6376 97.9088 26.3491C102.619 31.0607 106.353 36.6558 108.897 42.8136C111.44 48.9714 112.743 55.5707 112.73 62.2331C112.744 68.8973 111.442 75.4986 108.899 81.6586C106.356 87.8186 102.623 93.4163 97.9125 98.1306C93.2023 102.845 87.608 106.583 81.4503 109.132C75.2925 111.68 68.6924 112.988 62.0282 112.98C55.3611 112.989 48.7579 111.682 42.5967 109.134C36.4354 106.587 30.8371 102.849 26.1223 98.1357C21.4074 93.4219 17.6687 87.8244 15.12 81.6637C12.5714 75.503 11.263 68.9001 11.2697 62.2331C11.2697 34.1604 33.9555 11.5197 62.0282 11.5197ZM61.938 22.7104C61.1932 22.7177 60.4573 22.8726 59.7727 23.1661C59.0881 23.4597 58.4685 23.886 57.9498 24.4205C57.431 24.9549 57.0234 25.587 56.7504 26.28C56.4775 26.973 56.3446 27.7133 56.3595 28.4579V62.2331C56.3627 62.9746 56.5121 63.7082 56.7993 64.3918C57.0864 65.0754 57.5057 65.6957 58.0331 66.2169L80.5724 88.7675C81.0937 89.304 81.7167 89.7313 82.405 90.0245C83.0932 90.3177 83.833 90.471 84.5811 90.4753C85.3292 90.4796 86.0706 90.3348 86.7622 90.0496C87.4538 89.7643 88.0816 89.3441 88.6091 88.8137C89.1366 88.2832 89.5532 87.653 89.8346 86.9598C90.1159 86.2666 90.2564 85.5243 90.2479 84.7763C90.2394 84.0282 90.082 83.2894 89.7849 82.6028C89.4878 81.9162 89.057 81.2956 88.5175 80.7773L67.6405 59.9003V28.4579C67.6556 27.7028 67.5188 26.9523 67.2382 26.2511C66.9575 25.5499 66.5388 24.9123 66.0069 24.3761C65.4749 23.84 64.8406 23.4162 64.1416 23.1301C63.4426 22.8439 62.6932 22.7012 61.938 22.7104Z" fill="#142756"/>
</svg>
