<svg width="42" height="43" viewBox="0 0 42 43" fill="none" xmlns="http://www.w3.org/2000/svg">
<path fill-rule="evenodd" clip-rule="evenodd" d="M2.29872 31.1359C0.837641 28.2432 0 24.9791 0 21.5C0 18.0209 0.837641 14.7568 2.29872 11.8641C5.82465 4.82777 13.052 0 21.4286 0C27.2143 0 32.0455 2.13044 35.7663 5.60958L29.6298 11.7664C27.3896 9.65545 24.5844 8.56088 21.4286 8.56088C15.8572 8.56088 11.1234 12.3332 9.42859 17.415C9.00002 18.705 8.74672 20.0731 8.74672 21.5C8.74672 22.9269 9.00002 24.295 9.42859 25.5851L9.40323 25.6045H9.42859C11.1234 30.6864 15.8572 34.4587 21.4286 34.4587C24.3117 34.4587 26.7468 33.6768 28.6558 32.3868C30.9351 30.8623 32.4546 28.5951 32.9611 25.9173H21.4286V17.5909H41.6104C41.8636 18.9982 42 20.4641 42 21.9887C42 28.5363 39.6624 34.0482 35.6104 37.8009C32.065 41.0846 27.2143 43 21.4286 43C13.052 43 5.82465 38.1723 2.29872 31.1555V31.1359Z" fill="white"/>
</svg>
