<svg width="157" height="118" viewBox="0 0 157 118" fill="none" xmlns="http://www.w3.org/2000/svg">
<path d="M44.0664 79.6425L44.1846 79.75" stroke="white" stroke-width="0.182501" stroke-miterlimit="22.9256"/>
<path fill-rule="evenodd" clip-rule="evenodd" d="M82.6625 83.7965H12.6532L12.2122 83.829L11.7711 83.872L11.3517 83.9365L10.9321 84.0116L10.5236 84.1085L10.1361 84.2265L9.74899 84.356L9.37254 84.5065L9.00702 84.6675L8.66257 84.84L8.31854 85.0335L7.99604 85.2376L7.68406 85.4635L7.37203 85.6896L7.09247 85.9371L6.81254 86.2055L6.54395 86.4746L6.29644 86.765L6.05996 87.0661L5.84449 87.378L5.6294 87.701L5.44693 88.0341L5.26393 88.3892L5.10247 88.7442L4.9519 89.1097L4.82291 89.4862L4.70439 89.8841L4.60787 90.2822L4.5219 90.6911L4.45743 91.1107L4.41436 91.5297L4.38194 91.9707L4.41436 92.4117L4.45743 92.8528L4.5219 93.2722L4.60787 93.6917L4.70439 94.1007L4.82291 94.4878L4.9519 94.8749L5.10247 95.2514L5.26393 95.6173L5.44693 95.9613L5.6294 96.3053L5.84449 96.6283L6.05996 96.9398L6.29644 97.2518L6.54395 97.5318L6.81254 97.8113L7.09247 98.0803L7.37203 98.3274L7.68406 98.5643L7.99604 98.7794L8.31854 98.9945L8.66257 99.1773L9.00702 99.3599L9.37254 99.5214L9.74899 99.672L10.1361 99.801L10.5236 99.9195L10.9321 100.016L11.3517 100.102L11.7711 100.167L12.2122 100.21L12.6532 100.242H144.347L144.788 100.21L145.229 100.167L145.648 100.102L146.068 100.016L146.477 99.9195L146.864 99.801L147.251 99.672L147.627 99.5214L147.982 99.3599L148.337 99.1773L148.671 98.9945L149.004 98.7794L149.316 98.5643L149.617 98.3274L149.908 98.0803L150.187 97.8113L150.445 97.5318L150.693 97.2518L150.929 96.9398L151.155 96.6283L151.36 96.3053L151.542 95.9613L151.725 95.6173L151.887 95.2514L152.026 94.8749L152.166 94.4878L152.274 94.1007L152.371 93.6917L152.457 93.2722L152.521 92.8528L152.564 92.4117L152.597 91.9707L152.564 91.5193L152.521 91.0887L152.457 90.6587L152.371 90.2392L152.274 89.8411L152.166 89.4432L152.026 89.0667L151.887 88.6905L151.725 88.3357L151.542 87.9806L151.36 87.6471L151.155 87.3245L150.929 87.0126L150.693 86.7116L150.445 86.4316L150.187 86.152L149.908 85.894L149.617 85.657L149.316 85.4205L149.004 85.2056L148.671 85.0011L148.337 84.8185L147.982 84.6461L147.627 84.485L147.251 84.345L146.864 84.216L146.477 84.1085L146.068 84.0116L145.648 83.9365L145.229 83.872L144.788 83.818L144.347 83.7965H138.872L140.69 79.9999H144.444L145.057 80.0104L145.659 80.0644L146.262 80.1394L146.853 80.2365L147.434 80.3764L148.004 80.5375L148.563 80.7309L149.112 80.9354L149.639 81.1829L150.166 81.4519L150.671 81.7314L151.155 82.0434L151.629 82.3769L152.091 82.7425L152.532 83.119L152.951 83.506L153.349 83.9255L153.737 84.3665L154.092 84.8185L154.436 85.2811L154.748 85.765L155.038 86.2705L155.307 86.7866L155.554 87.3136L155.769 87.8621L155.963 88.4216L156.124 88.9807L156.264 89.5617L156.372 90.1531L156.447 90.7447L156.49 91.3577L156.512 91.9707L156.49 92.5947L156.447 93.2077L156.372 93.8103L156.264 94.4123L156.124 94.9933L155.963 95.5633L155.769 96.1333L155.554 96.6818L155.307 97.2089L155.038 97.7358L154.748 98.2413L154.436 98.7254L154.092 99.1989L153.737 99.6614L153.349 100.091L152.951 100.511L152.532 100.909L152.091 101.296L151.629 101.651L151.155 101.984L150.671 102.296L150.166 102.587L149.639 102.856L149.112 103.092L148.563 103.308L148.004 103.501L147.434 103.662L146.853 103.792L146.262 103.899L145.659 103.974L145.057 104.028L144.444 104.039H89.7396H66.3781H12.5561L11.9431 104.028L11.3301 103.974L10.7385 103.899L10.1471 103.792L9.56614 103.662L8.99604 103.501L8.43706 103.308L7.88854 103.092L7.35045 102.856L6.83398 102.587L6.32849 102.296L5.84449 101.984L5.36045 101.651L4.90902 101.296L4.4679 100.909L4.04847 100.511L3.65038 100.091L3.26347 99.6614L2.90841 99.1989L2.56433 98.7254L2.25235 98.2413L1.96181 97.7358L1.69286 97.2089L1.44535 96.6818L1.23039 96.1333L1.03679 95.5633L0.875336 94.9933L0.735793 94.4123L0.628244 93.8103L0.552888 93.2077L0.499259 92.5947L0.488281 91.9707L0.499259 91.3577L0.552888 90.7447L0.628244 90.1531L0.735793 89.5617L0.875336 88.9807L1.03679 88.4216L1.23039 87.8621L1.44535 87.3136L1.69286 86.7866L1.96181 86.2705L2.25235 85.765L2.56433 85.2811L2.90841 84.8185L3.26347 84.3665L3.65038 83.9255L4.04847 83.506L4.4679 83.119L4.90902 82.7425L5.36045 82.3769L5.84449 82.0434L6.32849 81.7314L6.83398 81.4519L7.35045 81.1829L7.88854 80.9354L8.43706 80.7309L8.99604 80.5375L9.56614 80.3764L10.1471 80.2365L10.7385 80.1394L11.3301 80.0644L11.9431 80.0104L12.5561 79.9999L42.0054 79.9244H67.626H68.0131H68.3786L68.9166 81.4839L70.7667 79.9244H73.1436L82.1785 82.9684L82.6625 83.7965Z" fill="white"/>
<path fill-rule="evenodd" clip-rule="evenodd" d="M34.7363 97.7362V88.6261H37.1349L39.5439 95.5852L41.8134 88.6261H44.223V97.7362H42.4481V90.9066L40.1789 97.7362H38.7804L36.5003 90.9066V97.7362H34.7363ZM45.9976 97.7362V88.6261H47.6431V97.7362H45.9976ZM49.4072 97.7362V88.6261H51.1817V96.2197H53.7092V97.7362H49.4072ZM54.0968 97.7362L57.8934 88.6261H59.2809L63.2069 97.7362H61.303L60.2919 95.4562H57.0008L55.9898 97.7362H54.0968ZM57.6354 93.8107H59.5389L58.6464 91.0246L57.6354 93.8107ZM64.089 97.7362V88.6261H65.9926L69.7787 95.3272V88.6261H71.5533V97.7362H69.5312L65.7346 91.154V97.7362H64.089ZM75.9849 95.0797H77.7594V95.2197L77.7809 95.3377L77.8133 95.4562L77.8453 95.5638L77.8994 95.6712L77.9639 95.7683L78.0498 95.8648L78.1359 95.9617L78.3294 96.0586L78.5339 96.1337L78.6414 96.1662L78.7599 96.1983L78.8889 96.2092L79.0179 96.2197H79.2114L79.3834 96.1983L79.4589 96.1878L79.534 96.1662L79.5984 96.1337L79.6525 96.0907L79.7384 96.0802L79.8243 96.0478L79.889 96.0047L79.9535 95.9507L80.0609 95.8218L80.158 95.7142L80.201 95.6607L80.2335 95.5962L80.2549 95.5207L80.2655 95.4452L80.287 95.2628V95.0797L80.2763 94.9827L80.2655 94.8861L80.2335 94.7892L80.1904 94.7032L80.1364 94.6067L80.0719 94.5096L79.9964 94.4127L79.9104 94.3162L79.7709 94.2086L79.577 94.0687L79.3513 93.9287L79.1468 93.8107L78.8674 93.7137L78.5769 93.6276L78.2973 93.5307L78.0069 93.4342L77.8349 93.3801L77.6733 93.3157L77.5333 93.2407L77.4258 93.1652L77.3293 93.0791L77.243 92.9932L77.1784 92.8961L77.1248 92.7996L77.0279 92.7457L76.9313 92.6596L76.8454 92.5736L76.7589 92.4661L76.6838 92.3586L76.6083 92.2511L76.5439 92.1436L76.4903 92.0466L76.3934 91.7776L76.3183 91.5301L76.2859 91.4121L76.2534 91.2936L76.2428 91.1646L76.2318 91.0246L76.2428 90.842L76.2753 90.6701L76.3183 90.5086L76.3828 90.3471L76.5008 90.0461L76.6193 89.7665L76.7159 89.6266L76.8238 89.4866L76.9419 89.347L77.0709 89.2285L77.2109 89.1101L77.3509 89.0136L77.4903 88.9381L77.6304 88.8736L77.7809 88.7875L77.9314 88.7126L78.1034 88.6475L78.2759 88.5941L78.4584 88.551L78.6414 88.5186L78.8349 88.5081L79.0179 88.4971L79.2005 88.5081L79.3834 88.5186L79.5449 88.551L79.7169 88.5726L80.0504 88.6585L80.4159 88.7555L80.5559 88.852L80.6959 88.9595L80.8249 89.0885L80.954 89.207L81.0614 89.347L81.1579 89.476L81.2444 89.6266L81.2979 89.7665L81.3625 89.8415L81.427 89.917L81.4809 89.9921L81.5344 90.0676L81.6205 90.2396L81.696 90.4116L81.739 90.5947L81.7819 90.7775L81.8035 90.9711V91.154H80.029V91.0246L80.0074 90.8957L79.9749 90.7775L79.9429 90.6806L79.889 90.5947L79.8139 90.5192L79.7384 90.4546L79.6525 90.401L79.5984 90.3471L79.534 90.3041L79.4589 90.261L79.3834 90.2182L79.2974 90.1861L79.2114 90.1645L79.1144 90.1535L79.0179 90.143L78.8889 90.1535L78.7599 90.1645L78.6414 90.1861L78.5445 90.2182L78.4584 90.261L78.3834 90.3041L78.3189 90.3471L78.2649 90.401L78.2108 90.4546L78.168 90.5086L78.1249 90.5836L78.0928 90.6701L78.0604 90.7561L78.0284 90.842L78.0174 90.9385L78.0069 91.0246L78.0174 91.1216L78.0284 91.2186L78.0604 91.3046L78.0928 91.3905L78.1249 91.4766L78.168 91.5411L78.2108 91.6056L78.2649 91.6596L78.2864 91.7131L78.3189 91.7562L78.3618 91.7886L78.4049 91.8317L78.5014 91.8961L78.6089 91.9606L78.8674 92.0682L79.1468 92.1651L79.3405 92.2186L79.5233 92.2831L79.7064 92.3586L79.889 92.4337L80.0609 92.5196L80.2335 92.6167L80.3945 92.7026L80.5345 92.7996L80.631 92.8316L80.7175 92.8641L80.8034 92.8961L80.8785 92.9392L81.0185 93.0253L81.1579 93.1332L81.4054 93.3481L81.6745 93.5632L81.7715 93.7137L81.8464 93.8642L81.9111 94.0362L81.965 94.2192L82.008 94.4237L82.0294 94.6282L82.051 94.8432L82.0615 95.0797L82.051 95.2732L82.0294 95.4562L82.008 95.6393L81.965 95.8218L81.9111 95.9938L81.8464 96.1662L81.7715 96.3272L81.6745 96.4672L81.5344 96.6502L81.395 96.8112L81.255 96.9512L81.1044 97.0698L80.8249 97.2848L80.5345 97.4783L80.3514 97.5752L80.158 97.6503L79.9644 97.7148L79.7815 97.7687L79.5879 97.8117L79.3944 97.8438L79.2114 97.8548L79.0179 97.8652H78.7168L78.4049 97.8438L78.2543 97.8333L78.1143 97.8117L77.9853 97.7793L77.8778 97.7362L77.7378 97.6828L77.5978 97.6183L77.4584 97.5428L77.3293 97.4677L77.1999 97.3813L77.0819 97.2953L76.9744 97.1987L76.8668 97.1018L76.6838 96.9082L76.5008 96.7037L76.4258 96.5963L76.3504 96.4778L76.2859 96.3597L76.2318 96.2197L76.1888 96.1123L76.1459 96.0047L76.1028 95.8758L76.0598 95.7467L76.0278 95.5962L76.0063 95.4346L75.9849 95.2628V95.0797ZM76.4903 85.8404H78.2649L78.8993 86.604L79.6525 85.8404H81.427L79.6525 87.615H78.2649L76.4903 85.8404ZM85.9766 97.7362L82.438 88.6261H84.2131L86.6116 95.5852L89.0206 88.6261H90.9137L87.375 97.7362H85.9766ZM91.7957 97.7362V88.6261H96.7324V90.272H93.5704V92.4231H96.6144V94.0687H93.5704V96.2197H96.7324V97.7362H91.7957ZM98.2489 97.7362V88.6261H100.282L103.95 95.3272V88.6261H105.725V97.7362H103.821L100.024 91.154V97.7362H98.2489ZM107.37 97.7362V88.6261H109.521H109.822L110.113 88.6475L110.403 88.6695L110.683 88.7016L110.941 88.734L111.21 88.7875L111.457 88.8415L111.694 88.906L111.93 88.9811L112.156 89.0671L112.371 89.164L112.576 89.2611L112.769 89.3791L112.963 89.4976L113.146 89.6266L113.307 89.7665L113.522 89.96L113.737 90.1645L113.845 90.272L113.931 90.39L114.017 90.5086L114.071 90.6485L114.157 90.7991L114.243 90.9495L114.307 91.1216L114.372 91.2831L114.48 91.6056L114.576 91.9176L114.673 92.2186L114.748 92.5627L114.781 92.7457L114.813 92.9287L114.824 93.1222L114.834 93.3052L114.824 93.4556L114.813 93.6172L114.781 93.7782L114.748 93.9397L114.673 94.2731L114.576 94.5742L114.48 94.9292L114.372 95.2518L114.307 95.4022L114.243 95.5532L114.157 95.6928L114.071 95.8327L113.974 95.9832L113.866 96.1231L113.748 96.2627L113.63 96.3917L113.393 96.6392L113.189 96.8543L112.898 97.0373L112.619 97.2093L112.468 97.2953L112.328 97.3708L112.189 97.4353L112.049 97.4783L111.801 97.5322L111.522 97.5752L111.231 97.6183L110.919 97.6613L110.597 97.6932L110.253 97.7148L109.887 97.7258L109.521 97.7362H107.37ZM109.134 96.2197H109.424H109.693H109.941H110.145L110.242 96.2092L110.339 96.1983L110.435 96.1768L110.532 96.1552L110.618 96.1337L110.715 96.1123L110.812 96.1017L110.909 96.0907L111.113 95.9938L111.339 95.8972L111.436 95.8542L111.533 95.8113L111.608 95.7572L111.672 95.7142L111.758 95.6822L111.844 95.6497L111.93 95.6177L112.006 95.5746L112.07 95.5207L112.146 95.4667L112.21 95.4132L112.264 95.3487L112.382 95.2087L112.49 95.0582L112.587 94.8861L112.683 94.7032L112.769 94.5527L112.845 94.3912L112.909 94.2302L112.963 94.0472L113.006 93.8751L113.038 93.6817L113.049 93.4987L113.06 93.3052V93.0467L113.038 92.8211L113.028 92.7137L113.006 92.6167L112.974 92.5196L112.931 92.4231V92.3262L112.909 92.2296L112.888 92.1327L112.855 92.0466L112.769 91.8531L112.683 91.6596L112.511 91.4766L112.361 91.2936L112.296 91.2186L112.221 91.1432L112.135 91.0785L112.049 91.0246L111.952 90.9385L111.855 90.8636L111.758 90.7881L111.672 90.7346L111.479 90.6161L111.285 90.5192L111.006 90.4331L110.737 90.3471L110.608 90.3151L110.489 90.2935L110.371 90.272H110.274H110.059H109.801H109.489H109.134V96.2197ZM115.34 97.7362L119.137 88.6261H120.524L124.321 97.7362H122.428L121.536 95.4562H118.244L117.233 97.7362H115.34ZM118.879 93.8107H120.783L119.761 91.0246L118.879 93.8107Z" fill="white"/>
<path fill-rule="evenodd" clip-rule="evenodd" d="M124.76 71.3175L138.054 71.1024V69.7364H127.223L126.976 69.8009L126.75 69.8654L126.535 69.9409L126.341 70.0054L126.159 70.0805L125.986 70.156L125.825 70.2314L125.685 70.3174L125.545 70.4139L125.416 70.5108L125.298 70.6294L125.18 70.7474L125.072 70.8659L124.965 71.0055L124.868 71.1564L124.76 71.3175ZM69.0881 80.9332L69.1206 80.9227L69.1526 80.9011L69.1741 80.8686L69.2066 80.8148L69.271 80.6642L69.3247 80.4707L69.3786 80.2126L69.4326 79.9222L69.4861 79.5782L69.5401 79.2016L69.583 78.7821L69.6261 78.3411L69.6581 77.8571L69.6906 77.3516L69.712 76.8245L69.7336 76.2651L69.744 75.695V75.1145V74.5335L69.7336 73.974L69.712 73.4365L69.6906 72.92L69.6581 72.4254L69.6261 71.9629L69.583 71.5324L69.5401 71.1455L69.4861 70.7799L69.4326 70.4679L69.3786 70.1884L69.3247 69.9514L69.271 69.7689L69.2066 69.6289L69.1741 69.5858L69.1526 69.5534L69.1206 69.532L69.0881 69.5214L69.0561 69.532L69.0235 69.5534L68.9916 69.5858L68.959 69.6289L68.9051 69.7689L68.8406 69.9514L68.7761 70.1884L68.7225 70.4679L68.6686 70.7799L68.6256 71.1455L68.5721 71.5324L68.529 71.9629L68.4966 72.4254L68.4645 72.92L68.4425 73.4365L68.4211 73.974L68.4105 74.5335V75.1145V75.695L68.4211 76.2651L68.4425 76.8245L68.4645 77.3516L68.4966 77.8571L68.529 78.3411L68.5721 78.7821L68.6256 79.2016L68.6686 79.5782L68.7225 79.9222L68.7761 80.2126L68.8406 80.4707L68.9051 80.6642L68.959 80.8148L68.9916 80.8686L69.0235 80.9011L69.0561 80.9227L69.0881 80.9332ZM80.2634 78.255L73.4441 76.7921L73.3477 76.6525L73.2613 76.5021L73.1752 76.3295L73.1002 76.1576L73.0141 75.975L72.9496 75.781L72.8741 75.5771L72.8097 75.3726L72.6912 74.9315L72.5946 74.4795L72.4976 74.0065L72.4332 73.5334L72.3796 73.06L72.3362 72.5869L72.3146 72.1244L72.3042 71.6834L72.3146 71.2638L72.3362 70.8765L72.3687 70.5214L72.4226 70.1989L81.3819 72.318L81.2209 72.759L81.0699 73.1785L80.9409 73.5979L80.8228 74.0065L80.7154 74.4045L80.6289 74.7915L80.5429 75.168L80.4783 75.5445L80.4248 75.9101L80.3708 76.2651L80.3389 76.6096L80.3063 76.9535L80.2849 77.2871L80.2743 77.6206L80.2634 77.9432V78.255ZM80.2634 78.5776L73.2292 77.1365L73.1217 77.0075L73.0247 76.8676L72.9387 76.7276L72.8527 76.5666L72.7772 76.405L72.7021 76.2436L72.6376 76.0611L72.5838 75.8781L72.5191 75.695L72.4656 75.5016L72.4226 75.2971L72.3796 75.093L72.3042 74.6625L72.2501 74.2215L72.1966 73.7485L72.1642 73.275L72.1426 72.7805L72.1211 72.275L72.1107 71.253V70.1989L70.0886 69.6399L71.5512 78.9111L80.9409 82.1487L80.8119 81.8043L80.6938 81.4282L80.5754 81.0192L80.4679 80.5782L80.4248 80.3526L80.3818 80.1157L80.3493 79.8687L80.3173 79.6212L80.2959 79.3737L80.2743 79.1155L80.2634 78.8466V78.5776ZM79.4784 50.7309L79.7688 50.6559L80.0483 50.6019L80.3173 50.5589L80.5754 50.5268L80.8228 50.5049H81.0699L81.3068 50.5158L81.5433 50.5268L81.7694 50.5589L81.9949 50.6019L82.2104 50.6559L82.4254 50.7204L82.6404 50.7954L82.8554 50.8814L83.0705 50.9784L83.275 51.0753L83.1784 51.6989L83.0814 52.3229L82.9954 52.9464L82.9095 53.56L82.8448 54.162L82.7694 54.775L82.7049 55.3775L82.6514 55.969L82.5975 56.5715L82.5435 57.1631L82.4899 57.7545L82.4469 58.3461L82.4039 58.927L82.361 59.5186L82.3179 60.0992L82.2749 60.6907L82.2319 60.9597L82.1673 61.1962L82.1024 61.4007L82.0274 61.5621L81.9949 61.6372L81.9519 61.7017L81.8984 61.7662L81.8553 61.8096L81.8014 61.8631L81.7478 61.8957L81.6833 61.9386L81.6294 61.9602L81.4895 62.0137L81.3499 62.0462L81.1885 62.0782L81.0164 62.0892L80.6073 62.1106L80.1343 62.1427L77.0258 61.8096L76.7032 61.7017L76.4238 61.5942L76.2948 61.5297L76.1867 61.4761L76.0793 61.4117L75.9718 61.3472L75.8857 61.2827L75.7998 61.2177L75.7353 61.1427L75.6598 61.0672L75.6063 60.9921L75.5523 60.9062L75.5092 60.8307L75.4772 60.7336L75.4557 60.6477L75.4342 60.5402L75.4127 60.4436V60.3361V60.2177V60.0992L75.4233 59.9812L75.4447 59.852L75.4988 59.5721L75.5737 59.2711L75.6708 58.9376L75.7782 58.5721L75.8857 58.0665L76.0043 57.5716L76.1332 57.066L76.2838 56.5605L76.4342 56.0661L76.6063 55.5604L76.7893 55.0656L77.0043 54.5709L77.2303 54.076L77.4778 53.592L77.6068 53.3445L77.7467 53.108L77.8863 52.8605L78.0368 52.6239L78.1873 52.3764L78.3598 52.1399L78.5208 51.9034L78.7038 51.6669L78.8868 51.43L79.0803 51.2043L79.2738 50.9674L79.4784 50.7309ZM96.5907 71.6619V69.7364L107.755 69.5214L108.239 69.532L108.691 69.5644L109.111 69.6074L109.498 69.6719L109.863 69.7579L110.197 69.8548L110.509 69.9729L110.81 70.0915L111.09 70.2314L111.358 70.3818L111.617 70.5324L111.853 70.7045L112.326 71.0484L112.789 71.4144L111.821 71.425L110.853 71.4359L109.863 71.4465L108.874 71.4679L107.884 71.5004L106.873 71.522L105.862 71.5544L104.851 71.5759L103.829 71.6079L102.807 71.6295L101.775 71.651L100.742 71.6619L99.7098 71.6724L98.6664 71.6834L97.6338 71.6724L96.5907 71.6619ZM113.574 71.7585L111.993 71.7909L110.39 71.8444L108.766 71.9089L107.121 71.9734L105.475 72.0489L103.808 72.1029L102.13 72.1564L100.441 72.1889L99.6024 72.1995H98.7523L97.9138 72.1889L97.0639 72.178L96.2142 72.1564L95.3753 72.1244L94.5257 72.0814L93.6757 72.0274L92.8367 71.9629L91.9872 71.877L91.1482 71.7909L90.3092 71.6834L89.4705 71.565L88.6421 71.425L87.8031 71.2744L86.975 71.1024L113.574 71.7585ZM101.377 51.6345L100.409 51.6024L99.4304 51.5699L98.4409 51.5594L97.4404 51.5483H96.4292L95.4183 51.5594L94.3967 51.581L93.3637 51.6129L92.3421 51.6454L91.3096 51.6884L90.2771 51.742L89.2551 51.7959L88.2225 51.8604L87.201 51.9354L86.19 52.0109L85.1789 52.0969V54.216L85.7595 54.1834L86.2975 54.162L86.803 54.1515L87.2546 54.173L87.4695 54.1834L87.674 54.205L87.8676 54.2375L88.0505 54.2805L88.2335 54.3234L88.3946 54.377L88.5561 54.4419L88.7065 54.5064L88.8465 54.5925L88.9756 54.6784L89.094 54.786L89.2122 54.8935L89.3196 55.0225L89.4166 55.1515L89.5136 55.302L89.5887 55.453L89.6642 55.6251L89.7286 55.8186L89.7932 56.012L89.8466 56.2271L89.8897 56.453L89.9326 56.7005L89.9652 56.9586L89.9976 57.2276H100.947L100.968 57.0015L101.011 56.7756L101.054 56.5501L101.108 56.324L101.172 56.0981L101.248 55.872L101.334 55.6465L101.431 55.4205L101.527 55.1945L101.646 54.969L101.764 54.7319L101.893 54.5064L102.173 54.0224L102.495 53.5384H97.9243V52.1939H101.377V51.6345ZM101.839 51.6345V52.1939H103.399L103.84 51.6345H101.839ZM124.201 58.2276L117.704 52.6564L117.231 52.4949L116.747 52.355L116.274 52.226L115.811 52.1185L115.349 52.0219L114.886 51.9354L114.424 51.871L113.961 51.8065L113.499 51.7634L113.036 51.7204L112.574 51.6884L112.111 51.6669L111.165 51.6454L110.208 51.6345L110.466 51.7528L110.713 51.882L110.95 52.0109L111.165 52.1399L111.38 52.2799L111.584 52.4195L111.778 52.5704L111.961 52.7209L112.133 52.8819L112.305 53.0435L112.456 53.2049L112.617 53.3769L112.757 53.56L112.896 53.732L113.036 53.9145L113.165 54.0975L113.423 54.485L113.66 54.8825L113.886 55.302L114.101 55.7325L114.553 56.625L115.026 57.5716L115.564 57.5825L116.091 57.5931L116.586 57.6255L117.08 57.6686L117.554 57.7221L118.027 57.7865L118.468 57.873L118.909 57.9696L119.328 58.0881L119.748 58.2276L120.146 58.3891L120.533 58.5611L120.716 58.6581L120.909 58.7546L121.092 58.8626L121.264 58.97L121.447 59.0881L121.619 59.2066L121.791 59.3356L121.963 59.4755L125.082 59.3466L124.201 58.2276ZM138.054 69.3064L137.721 68.8545L137.409 68.4243L137.118 67.9939L136.839 67.5744L136.559 67.1552L136.279 66.7249L136 66.2947L135.709 65.8427L128.783 65.6062L131.235 69.0804L131.461 69.3064H138.054ZM138.388 69.3064L135.806 65.6062L128.095 65.2838L131.02 69.3064H127.105L126.546 69.4244L126.105 69.5214L125.922 69.6289L125.75 69.7364L125.588 69.8333L125.438 69.9409L125.298 70.0484L125.169 70.156L125.05 70.2633L124.932 70.3709L124.728 70.5969L124.545 70.8335L124.373 71.0704L124.201 71.3175L113.692 71.4144L113.445 71.3175L113.23 71.1024L112.94 70.8765L112.649 70.6614L112.369 70.4679L112.09 70.2743L111.81 70.1023L111.52 69.9409L111.24 69.8009L110.95 69.6613L110.649 69.5429L110.347 69.4354L110.036 69.3493L109.713 69.2634L109.379 69.1989L109.046 69.1449L108.68 69.1128L108.315 69.0804H107.755H105.421L103.055 65.8427L94.3427 66.4022L93.9232 66.0043L93.4822 65.6062L93.0412 65.2193L92.5786 64.8318L92.0946 64.4553L91.6107 64.0788L91.0946 63.7133L90.5676 63.3477L90.0296 63.0032L89.4595 62.6591L88.8786 62.3257L88.2765 62.0032L87.6421 61.6803L86.9965 61.3792L86.319 61.0887L85.609 60.8091L84.8345 60.9062L85.308 61.0996L85.7811 61.2932L86.2435 61.4976L86.6845 61.6912L87.1255 61.9061L87.5666 62.1106L87.986 62.3257L88.3946 62.5516L88.8036 62.7667L89.2016 62.9928L89.5887 63.2292L89.9761 63.4658L90.3417 63.7023L90.7182 63.9498L91.073 64.1972L91.4281 64.4447L91.7721 64.7028L92.1056 64.9608L92.4392 65.2298L92.7617 65.4988L93.0842 65.7783L93.3963 66.0474L93.7082 66.3378L94.0093 66.6173L94.2997 66.9183L94.5902 67.2089L94.8806 67.5099L95.1602 67.8113L95.4398 68.1229L95.7087 68.4349L95.9777 68.7579L96.2463 69.0804L86.4155 68.7363L86.3296 68.5424L86.2115 68.2953L86.136 68.1664L86.061 68.0264L85.964 67.8864L85.867 67.7358L85.7705 67.6068L85.6519 67.4778L85.5335 67.3489L85.4154 67.2413L85.2754 67.1443L85.1464 67.0583L85.0065 66.9938L84.856 66.9508L84.7055 66.9293L84.5441 66.9398L84.383 66.9724L84.2214 67.0368L84.0494 67.1443L83.8774 67.2844L83.7054 67.4562L83.5225 67.6713L83.3395 67.9293L83.1569 68.2413L82.974 68.5963L82.791 69.0049L82.5975 69.4674L82.4145 69.9839L82.221 70.5645L82.038 71.1994L69.8732 68.1768L69.6796 67.7789L69.4971 67.4133L69.3247 67.0798L69.1526 66.7893L68.9916 66.5418L68.83 66.3378L68.7546 66.2623L68.6796 66.1873L68.615 66.1333L68.5396 66.1009L68.475 66.0688L68.4105 66.0578H68.346L68.2815 66.0793L68.2276 66.1118L68.174 66.1548L68.1095 66.2302L68.0666 66.3053L68.0125 66.4128L67.959 66.5204L67.9156 66.6604L67.8726 66.8108L67.8295 66.9828L67.7975 67.1768L67.765 67.3918L67.733 67.6174L67.6146 67.1334L67.5071 66.7573L67.41 66.4343L67.324 66.1333L67.292 65.9933L67.2596 65.8323L67.2275 65.6707L67.206 65.4878L67.1951 65.2838L67.1735 65.0577V64.7997L67.163 64.5092L69.3141 58.6901L72.1107 58.2276L72.5191 57.7006L72.9387 57.1736L73.3582 56.6466L73.7777 56.1196L74.2077 55.6035L74.6272 55.0765L75.0682 54.5599L75.4988 54.0544L75.9397 53.549L76.3913 53.0545L76.8538 52.5704L77.3163 52.0864L77.7898 51.6238L78.2738 51.1614L78.7579 50.7204L79.2633 50.3009L79.5533 50.1393L79.8549 49.9889L80.1449 49.8599L80.4463 49.7414L80.7473 49.6338L81.0593 49.5479L81.3605 49.4618L81.6724 49.3863L81.9843 49.3219L82.2963 49.2683L82.6079 49.2253L82.92 49.1823L83.5439 49.1284L84.1784 49.0749L85.1789 49.0208L86.19 48.9669L87.1901 48.9349L88.1906 48.9023L89.2016 48.8704L90.2017 48.8594L91.2126 48.8378L92.2131 48.8274H93.2242H94.2242H95.2353H96.2463H97.2468L98.2469 48.8378H99.2583H100.258L101.259 48.8704L102.27 48.9023L103.291 48.9133L104.324 48.9349L105.368 48.9563L106.411 48.9994L106.927 49.0208L107.454 49.0529L107.97 49.0853L108.486 49.1284L108.992 49.1823L109.498 49.2469L110.014 49.3114L110.509 49.3973L111.004 49.4834L111.498 49.5803L111.982 49.6983L112.466 49.8273L112.94 49.9673L113.402 50.1289L113.864 50.3009L114.316 50.4834L114.757 50.6878L115.187 50.9139L115.618 51.1504L116.026 51.4194L115.381 51.2149L114.725 51.0429L114.069 50.8814L113.413 50.7523L112.746 50.6344L112.058 50.5268L111.369 50.4513L110.67 50.3758L109.949 50.3223L109.207 50.2685L108.444 50.2364L107.669 50.2148L106.863 50.1933L106.034 50.1824L105.185 50.1719H104.302L84.512 50.7309L83.6194 60.5942L84.953 60.4867L86.2975 60.4006L87.6311 60.3146L88.9647 60.2392L90.2876 60.1746L91.6216 60.1102L92.9446 60.0561L94.2782 60.0026L96.9133 59.9271L99.5594 59.8626L102.184 59.8196L104.819 59.7872L107.443 59.7657L110.057 59.7441L112.681 59.7337L115.295 59.7121L117.909 59.6906L120.522 59.6692L123.147 59.6261L125.761 59.5721L124.986 58.3461L125.567 58.4321L126.147 58.5181L126.438 58.5611L126.729 58.615L127.019 58.6795L127.309 58.7442L127.589 58.8191L127.879 58.916L128.159 59.0236L128.449 59.1421L128.729 59.2817L129.009 59.4327L129.278 59.6151L129.557 59.8086L129.342 61.0242L129.719 61.2501L130.127 61.4866L130.547 61.7231L130.977 61.9816L131.407 62.2288L131.837 62.4763L132.268 62.7022L132.698 62.9282L133.15 63.1752L133.591 63.4337L134.021 63.6917L134.44 63.9607L134.849 64.2298L135.247 64.4983L135.634 64.7783L136.021 65.0683L136.387 65.3588L136.753 65.6598L137.108 65.9613L137.463 66.2733L137.817 66.5957L138.151 66.9293L138.495 67.2734L138.828 67.6174L138.99 67.8974L139.108 68.1554L139.151 68.2739L139.183 68.3813L139.205 68.4888V68.5854L139.183 68.6933L139.14 68.7793L139.076 68.8759L139.001 68.9619L138.882 69.0479L138.753 69.1344L138.581 69.2204L138.388 69.3064ZM104.959 69.1773L96.8058 69.3064L96.5798 68.9619L96.3327 68.6179L96.0638 68.2739L95.7838 67.9293L95.4938 67.5958L95.2137 67.2844L94.9453 66.9938L94.6868 66.7249L102.84 66.1653L104.959 69.1773ZM139.635 80.3742L139.689 80.1267L139.732 79.8791L139.775 79.6426L139.807 79.4061L139.861 78.9541L139.893 78.5026L139.904 78.0722V77.642L139.883 77.2116L139.85 76.7921L139.753 76.6955L139.657 76.6201L139.549 76.545L139.431 76.4911L139.302 76.448L139.162 76.4156L139.001 76.3836L138.839 76.3726L138.441 76.3511H137.99H137.452L136.828 76.3621L98.4838 77.3516L98.2148 77.3731L97.9568 77.4051L97.7093 77.4375L97.4618 77.47L97.0102 77.5561L96.5693 77.6526L96.1497 77.7602L95.7303 77.8786L95.3212 78.0077L94.9127 78.1367L91.7721 80.0297L91.6536 80.1697L91.5571 80.2987L91.4711 80.4277L91.4061 80.5462L91.3526 80.6537L91.3202 80.7717L91.2987 80.8797L91.2881 80.9762L91.2987 81.0731L91.3202 81.1696L91.3526 81.2557L91.3957 81.3312L91.4601 81.4067L91.5247 81.4817L91.6107 81.5461L91.6967 81.6107L91.8042 81.6647L91.9117 81.7182L92.0301 81.7722L92.1592 81.8152L92.2992 81.8477L92.4497 81.8797L92.6003 81.9122L92.7617 81.9337L92.9232 81.9553L93.0951 81.9657H93.2778L93.4607 81.9767L93.8372 81.9657L94.2242 81.9337L96.1497 81.9122L98.2903 81.8692L100.635 81.8367L103.162 81.7827L105.841 81.7182L108.648 81.6537L111.563 81.5892L114.574 81.5033L117.64 81.4282L120.748 81.3422L123.867 81.2557L126.987 81.1696L130.084 81.0837L133.117 80.9872L136.086 80.9011L138.947 80.8148L139.065 80.7717L139.151 80.7287L139.226 80.6856L139.291 80.6427L139.431 80.5246L139.635 80.3742ZM100.387 80.8148L105.077 80.7182L105.163 80.7072L105.238 80.6752L105.314 80.6321L105.378 80.5782L105.432 80.5032L105.475 80.4277L105.507 80.3417L105.518 80.2557V79.0401L105.507 78.9541L105.475 78.8682L105.432 78.7927L105.378 78.7176L105.314 78.6636L105.238 78.6101L105.163 78.5886L105.077 78.5776L100.387 78.6962L100.269 78.7066L100.172 78.7282L100.097 78.7711L100.032 78.8356L99.9893 78.9006L99.9679 78.9756L99.9463 79.0511V79.1371V80.3742V80.4601L99.9679 80.5352L99.9893 80.6107L100.032 80.6752L100.097 80.7287L100.172 80.7717L100.215 80.7932L100.269 80.8042H100.323L100.387 80.8148ZM132.58 79.5996L137.387 79.4706L137.473 79.4596L137.549 79.4381L137.624 79.3951L137.688 79.3412L137.753 79.2661L137.796 79.2016L137.817 79.1155L137.828 79.0401V77.7926L137.817 77.7171L137.796 77.6312L137.753 77.5561L137.688 77.4916L137.624 77.4375L137.549 77.3946L137.473 77.3621L137.387 77.3516L132.58 77.4486L132.493 77.47L132.418 77.502L132.343 77.5451L132.278 77.6096L132.214 77.6956L132.171 77.7926L132.149 77.9001L132.139 78.0077V79.1371V79.1907L132.149 79.2551L132.16 79.2982L132.171 79.3521L132.214 79.4276L132.278 79.492L132.343 79.5351L132.418 79.5671L132.493 79.5886L132.58 79.5996ZM87.072 71.7585L87.2975 71.995L87.5021 72.2425L87.6956 72.49L87.8786 72.759L88.0505 73.0279L88.2011 73.3075L88.3411 73.5979L88.4806 73.8991L88.599 74.2001L88.7065 74.512L88.8036 74.8345L88.8896 75.1575L88.9756 75.491L89.0401 75.824L89.1046 76.1685L89.1585 76.5235L89.2016 76.878L89.2446 77.2441L89.2766 77.6096L89.2981 77.9756L89.3412 78.739L89.3626 79.5026V80.2877L89.3521 81.0947L89.3305 81.8907L89.3091 82.7077L89.3305 82.8262L89.3626 82.9231L89.4056 83.0307L89.4487 83.1168L89.5026 83.2027L89.5566 83.2888L89.6211 83.3533L89.6856 83.4288L89.7607 83.4823L89.836 83.5467L89.9221 83.6008L90.0081 83.6437L90.0942 83.6868L90.1911 83.7188L90.2986 83.7512L90.3952 83.7837L90.6106 83.8267L90.8471 83.8588L91.073 83.8698L91.3202 83.8802H91.5677L91.8257 83.8698L92.0732 83.8482L92.3312 83.8267L125.761 83.5147L138.947 83.0523L139.087 82.8803L139.226 82.7077L139.356 82.5357L139.474 82.3532L139.592 82.1702L139.7 81.9767L139.796 81.7827L139.893 81.5787L139.979 81.3741L140.055 81.1592L140.13 80.9332L140.194 80.7072L140.259 80.4707L140.313 80.2232L140.367 79.9652L140.41 79.6961L140.442 79.5671L140.453 79.4492V79.3196L140.463 79.1907V79.0511V78.9006L140.474 78.739L140.506 78.5776L140.194 76.233L140.065 73.6624L139.85 71.9734L137.957 72.2209L112.789 72.759L98.3654 72.877L87.072 71.7585ZM88.3086 72.2209L89.3091 73.996L90.0081 74.1035L90.7071 74.1895L91.4281 74.2756L92.1376 74.3505L92.8692 74.415L93.5897 74.4795L94.3318 74.5335L95.0742 74.566L95.8163 74.598L96.5693 74.6195L97.3222 74.641H98.0858H98.8494L99.6129 74.6195L100.387 74.598L101.162 74.555L139.506 73.6624V72.436L136.903 72.49L134.311 72.5439L131.708 72.619L129.106 72.6835L126.513 72.7694L123.911 72.8449L121.318 72.931L118.715 73.006L116.123 73.0814L113.52 73.1459L110.917 73.2104L108.325 73.2644L105.722 73.2965L103.119 73.3179L100.527 73.329L97.9243 73.3179L97.3112 73.2965L96.6983 73.2644L96.0852 73.232L95.4612 73.2L94.8482 73.1569L94.2242 73.103L93.6112 73.0494L92.9877 72.9739L92.3742 72.9094L91.7721 72.8339L91.1696 72.748L90.5782 72.6515L89.9976 72.5545L89.4271 72.4574L88.8571 72.3394L88.3086 72.2209ZM89.3091 74.4366L95.9022 74.996L98.1393 76.233L139.732 75.34V75.8995L98.0213 76.889L95.5688 75.4585L89.535 74.996L89.3091 74.4366ZM85.1789 85.0743L85.3399 85.0634L85.5015 85.0313L85.6735 84.9882L85.835 84.9344L85.9855 84.8593L86.136 84.7624L86.2865 84.6653L86.437 84.5363L86.5769 84.4073L86.717 84.2567L86.8565 84.0953L86.9855 83.9128L87.115 83.7298L87.233 83.5253L87.3515 83.3103L87.4695 83.0842L87.5775 82.8477L87.674 82.6003L87.7711 82.3532L87.857 82.0842L87.9431 81.8043L88.0186 81.5247L88.0936 81.2237L88.158 80.9227L88.2121 80.6107L88.2656 80.2987L88.3086 79.9761L88.3411 79.6426L88.3731 79.2982L88.3946 78.9541L88.4055 78.6101V78.255V77.9111L88.3946 77.5665L88.3731 77.2331L88.3411 76.9106L88.3086 76.588L88.2656 76.2651L88.2121 75.9535L88.158 75.652L88.0936 75.351L88.0186 75.0606L87.9431 74.781L87.857 74.5015L87.7711 74.243L87.674 73.985L87.5775 73.7485L87.4695 73.512L87.3515 73.2859L87.233 73.0814L87.115 72.877L86.9855 72.6945L86.8565 72.5114L86.717 72.35L86.5769 72.2104L86.437 72.0705L86.2865 71.952L86.136 71.8444L85.9855 71.7585L85.835 71.6724L85.6735 71.6189L85.5015 71.5759L85.3399 71.5544L85.1789 71.5434L85.0065 71.5544L84.8454 71.5759L84.684 71.6189L84.5225 71.6724L84.372 71.7585L84.211 71.8444L84.06 71.952L83.9204 72.0705L83.7698 72.2104L83.6409 72.35L83.5009 72.5114L83.3719 72.6945L83.2429 72.877L83.1244 73.0814L83.006 73.2859L82.8879 73.512L82.7804 73.7485L82.6834 73.985L82.5865 74.243L82.4899 74.5015L82.4039 74.781L82.3284 75.0606L82.2534 75.351L82.1889 75.652L82.1349 75.9535L82.0809 76.2651L82.038 76.588L82.0059 76.9106L81.9735 77.2331L81.9519 77.5665L81.9414 77.9111V78.255V78.6101L81.9519 78.9541L81.9735 79.2982L82.0059 79.6426L82.038 79.9761L82.0809 80.2987L82.1349 80.6107L82.1889 80.9227L82.2534 81.2237L82.3284 81.5247L82.4039 81.8043L82.4899 82.0842L82.5865 82.3532L82.6834 82.6003L82.7804 82.8477L82.8879 83.0842L83.006 83.3103L83.1244 83.5253L83.2429 83.7298L83.3719 83.9128L83.5009 84.0953L83.6409 84.2567L83.7698 84.4073L83.9204 84.5363L84.06 84.6653L84.211 84.7624L84.372 84.8593L84.5225 84.9344L84.684 84.9882L84.8454 85.0313L85.0065 85.0634L85.1789 85.0743ZM85.1789 83.8267H85.308L85.4475 83.8053L85.577 83.7618L85.706 83.7188L85.835 83.6543L85.964 83.5792L86.0825 83.4932L86.2115 83.3962L86.3296 83.2888L86.437 83.1597L86.5555 83.0307L86.663 82.8907L86.7706 82.7293L86.8675 82.5682L86.9641 82.3962L87.061 82.2132L87.147 82.0197L87.233 81.8152L87.3085 81.6107L87.3836 81.3851L87.4591 81.1592L87.5236 80.9332L87.5881 80.6856L87.6421 80.4386L87.685 80.1911L87.728 79.9332L87.7601 79.6641L87.7925 79.3951L87.814 79.1155L87.8356 78.8356L87.846 78.5456V78.255V77.9756L87.8356 77.6956L87.814 77.4271L87.7925 77.1471L87.7601 76.878L87.728 76.6201L87.685 76.3621L87.6421 76.104L87.5881 75.8671L87.5236 75.62L87.4591 75.3831L87.3836 75.1575L87.3085 74.942L87.233 74.727L87.147 74.5229L87.061 74.3291L86.9641 74.1356L86.8675 73.9635L86.7706 73.7915L86.663 73.6409L86.5555 73.49L86.437 73.3506L86.3296 73.2214L86.2115 73.1139L86.0825 73.006L85.964 72.92L85.835 72.8449L85.706 72.7805L85.577 72.7265L85.4475 72.6945L85.308 72.6729L85.1789 72.662L85.0389 72.6729L84.899 72.6945L84.77 72.7265L84.641 72.7805L84.512 72.8449L84.383 72.92L84.2645 73.006L84.1355 73.1139L84.017 73.2214L83.9094 73.3506L83.7914 73.49L83.6839 73.6409L83.576 73.7915L83.4795 73.9635L83.3825 74.1356L83.286 74.3291L83.1999 74.5229L83.1134 74.727L83.0385 74.942L82.963 75.1575L82.8879 75.3831L82.8234 75.62L82.7694 75.8671L82.7049 76.104L82.662 76.3621L82.6189 76.6201L82.5865 76.878L82.5544 77.1471L82.5328 77.4271L82.5114 77.6956L82.5004 77.9756V78.255V78.5456L82.5114 78.8356L82.5328 79.1155L82.5544 79.3951L82.5865 79.6641L82.6189 79.9332L82.662 80.1911L82.7049 80.4386L82.7694 80.6856L82.8234 80.9332L82.8879 81.1592L82.963 81.3851L83.0385 81.6107L83.1134 81.8152L83.1999 82.0197L83.286 82.2132L83.3825 82.3962L83.4795 82.5682L83.576 82.7293L83.6839 82.8907L83.7914 83.0307L83.9094 83.1597L84.017 83.2888L84.1355 83.3962L84.2645 83.4932L84.383 83.5792L84.512 83.6543L84.641 83.7188L84.77 83.7618L84.899 83.8053L85.0389 83.8267H85.1789ZM84.953 72.662L84.1784 76.233L82.5975 76.577V79.0401L84.1784 79.5996L84.3935 83.6113L85.8566 83.7298L86.5125 80.1587H87.6311L87.846 78.3516L86.631 77.1365L86.2975 73.103L84.953 72.662ZM84.512 76.6741L83.0599 76.889V78.6962L84.6195 79.2551L84.8345 83.1702L85.394 83.2672L86.1685 79.8146L87.2871 79.6961L87.4161 78.4701L86.1685 77.3516L85.8566 73.4365L85.297 73.2214L84.512 76.6741ZM85.082 81.5892H85.394L85.512 78.6962L86.975 79.1371V78.8142L85.609 78.3516L85.738 74.6841H85.297L85.1789 78.255L83.275 77.6956V78.0077L85.1789 78.5776L85.082 81.5892ZM86.975 70.9839L86.9426 70.8014L86.9106 70.6184L86.8565 70.4354L86.803 70.2633L86.7385 70.0805L86.663 69.9085L86.5769 69.7364L86.48 69.5748L86.3835 69.4244L86.2759 69.2738L86.1576 69.1344L86.0284 69.0049L85.8994 68.8869L85.7595 68.7898L85.609 68.7039L85.4585 68.6288L85.297 68.5749L85.125 68.5424L84.953 68.5208H84.781L84.5979 68.5533L84.4045 68.5963L84.211 68.6718L84.017 68.7684L83.8129 68.8973L83.5975 69.0589L83.3934 69.2418L83.1784 69.4568L82.9524 69.6934L82.7374 69.9729L82.5114 70.2959L82.2749 70.64L82.4683 70.4679L82.6514 70.2959L82.8448 70.1454L83.0275 69.9944L83.2213 69.8548L83.4039 69.7148L83.587 69.5968L83.7698 69.4889L83.9525 69.3814L84.1355 69.2954L84.3184 69.2204L84.4904 69.1449L84.6624 69.1018L84.8345 69.0589L85.0065 69.0263L85.1681 69.0159H85.3185L85.4801 69.0263L85.62 69.0589L85.7705 69.1018L85.91 69.1558L86.039 69.2418L86.1685 69.3278L86.2865 69.4354L86.3941 69.5644L86.5016 69.7148L86.5985 69.8764L86.6955 70.0589L86.7816 70.2633L86.846 70.4784L86.921 70.7153L86.975 70.9839ZM81.7154 70.5429V70.2959L72.2072 67.9619L72.1642 67.4133L72.1536 66.8538V66.2947L72.1642 65.7353L72.1857 65.4662L72.2072 65.1868L72.2397 64.9073L72.2717 64.6273L72.3146 64.3587L72.3577 64.0898L72.4117 63.8207L72.4762 63.5517L72.5407 63.2938L72.6162 63.0356L72.7021 62.7777L72.7987 62.5192L72.9066 62.2722L73.0141 62.0351L73.1323 61.7882L73.2613 61.5621L73.4012 61.3256L73.5516 61.1101L73.7022 60.8952L73.8747 60.6801L74.0573 60.4757L74.2507 60.2822L74.4446 60.0886L74.6597 59.9057L75.1223 59.5721V59.2496L74.8532 59.4111L74.6058 59.5721L74.3587 59.7657L74.1328 59.9596L73.9177 60.1746L73.7132 60.4006L73.5196 60.6371L73.3367 60.8846L73.1647 61.1427L73.0141 61.4007L72.8637 61.6803L72.7237 61.9707L72.5946 62.2612L72.4872 62.5516L72.3796 62.8636L72.2826 63.1648L72.1966 63.4872L72.1107 63.7992L72.0461 64.1218L71.9816 64.4447L71.9387 64.7673L71.8956 65.0897L71.8522 65.4127L71.8306 65.7353L71.8092 66.0578L71.7987 66.3698L71.7877 66.6818V66.9938L71.7987 67.3058L71.8201 67.6068L71.8416 67.8974L71.8632 68.1768L81.7154 70.5429ZM69.6475 59.2496V58.7871L69.6581 58.9807L69.6796 59.1636L69.712 59.3356L69.744 59.4861L69.7871 59.6366L69.8411 59.7765L69.8946 59.9057L69.9595 60.0241L70.024 60.1316L70.0991 60.2392L70.1746 60.3361L70.2605 60.4221L70.3466 60.4971L70.4326 60.5726L70.5296 60.6477L70.637 60.7122L70.8411 60.8307L71.0671 60.9276L71.3037 61.0242L71.5406 61.1101L72.0352 61.2827L72.5407 61.4652V61.8096L72.0032 61.6157L71.4761 61.4547L71.2286 61.3687L70.9921 61.2827L70.7552 61.1746L70.5511 61.0672L70.4542 61.0027L70.3571 60.9381L70.2605 60.8632L70.1852 60.7877L70.0991 60.7016L70.024 60.6156L69.9595 60.5187L69.8946 60.4112L69.8411 60.3036L69.7871 60.1851L69.744 60.0561L69.712 59.9166L69.6906 59.7657L69.6691 59.6045L69.6581 59.4327L69.6475 59.2496ZM81.1558 64.3908V64.0468L80.6399 63.9927L80.1129 63.9282L79.5964 63.8423L79.0909 63.7457L78.5853 63.6378L78.0798 63.5197L77.5853 63.3797L77.0903 63.2403L76.6063 63.0893L76.1332 62.9387L75.6598 62.7777L75.1972 62.6053L74.7458 62.4442L74.3047 62.2722L73.8747 62.0998L73.4441 61.9277L73.3257 62.2722L73.7452 62.4332L74.1863 62.5947L74.6382 62.7667L75.0897 62.9282L75.5632 63.1002L76.0363 63.2617L76.5203 63.4337L77.0258 63.6057L77.5208 63.7347L78.0263 63.8533L78.5318 63.9713L79.0478 64.0788L79.5643 64.1757L80.0804 64.2618L80.6183 64.3372L81.1558 64.3908ZM81.0379 69.9839L81.3819 70.0805V69.5968V69.0909L81.3929 68.5749L81.4144 68.0478L81.436 67.5099L81.4679 66.9613L81.5109 66.4128L81.5649 65.8537L81.6294 65.2942L81.7049 64.7243L81.7908 64.1542L81.8984 63.5948L82.0274 63.0248L82.1673 62.4657L82.3179 61.9172L82.5004 61.3687L82.5544 61.0456L82.5865 60.7662L82.5975 60.5081V60.2496L82.6404 59.6582L82.6944 59.0776L82.7374 58.4861L82.791 57.8945L82.8448 57.3135L82.8985 56.7221L82.963 56.141L83.0275 55.5495L83.0814 54.969L83.1569 54.377L83.2213 53.7965L83.2964 53.2049L83.3719 52.6239L83.447 52.0324L83.5329 51.441L83.6194 50.8599L83.3609 50.7309L83.092 50.6233L82.8124 50.5268L82.5328 50.4299L82.2534 50.3544L81.9629 50.2899L81.6724 50.2254L81.3819 50.1719L81.1129 50.1824L80.8548 50.1933L80.5859 50.2254L80.3063 50.2469L80.0374 50.2899L79.7688 50.3329L79.5103 50.3758L79.2633 50.4189L79.0478 50.6344L78.8438 50.8708L78.6393 51.1184L78.4348 51.3763L78.2308 51.6454L78.0477 51.9034L77.8543 52.1614L77.6818 52.4089L77.4347 52.839L77.2088 53.2694L77.0043 53.7104L76.8107 54.1515L76.6278 54.603L76.4558 55.055L76.2948 55.5175L76.1438 55.9906L76.0043 56.453L75.8643 56.9266L75.7353 57.3996L75.6168 57.8836L75.3698 58.8411L75.1223 59.8086L75.1113 60.0671V60.3036L75.1437 60.5187L75.1758 60.7232L75.2082 60.8091L75.2403 60.9062L75.2727 60.9811L75.3157 61.0672L75.3588 61.1427L75.4127 61.2177L75.4662 61.2827L75.5308 61.3576L75.6598 61.4761L75.7998 61.5942L75.9612 61.7017L76.1438 61.7986L76.3377 61.8957L76.5528 61.9816L76.7787 62.0677L77.0258 62.1427L77.5743 62.1967L78.1553 62.2612L78.7579 62.3257L79.3708 62.3797L79.6823 62.4116L79.9943 62.4227L80.3063 62.4332L80.6073 62.4442L80.9193 62.4332L81.2209 62.4227L81.5219 62.4012L81.8124 62.3687L81.7264 62.6267L81.6399 62.8852L81.5649 63.1432L81.5004 63.3907L81.3713 63.8852L81.2744 64.3692L81.1885 64.8533L81.1344 65.3268L81.0809 65.7893L81.0484 66.2518L81.0268 66.7143L81.0164 67.1768V67.6393V68.1013L81.0268 69.0263L81.0379 69.9839ZM72.3256 64.9503L73.6592 65.1652L73.8853 64.1647L72.6697 63.8317L72.3256 64.9503ZM73.5412 64.9503L73.6592 64.2618L72.7666 64.0468L72.5407 64.8212L73.5412 64.9503ZM82.038 64.5092L82.1563 64.1647L82.4254 64.2188L82.6944 64.2832L82.9524 64.3692L83.1999 64.4663L83.4364 64.5842L83.6624 64.7138L83.8664 64.8533L84.071 65.0148L84.2539 65.1758L84.4259 65.3588L84.5875 65.5523L84.7269 65.7462L84.8454 65.9613L84.942 66.1763L85.0175 66.3912L85.082 66.6278L84.942 66.4343L84.813 66.2518L84.6734 66.0793L84.5335 65.9073L84.383 65.7462L84.2324 65.5848L84.071 65.4448L83.899 65.3052L83.7054 65.1758L83.5115 65.0468L83.3074 64.9287L83.0814 64.8318L82.8448 64.7352L82.5865 64.6488L82.3179 64.5737L82.038 64.5092ZM76.4667 57.0125L76.3807 57.3026L76.3162 57.5931L76.2513 57.8836L76.1867 58.1846L76.1222 58.4751L76.0473 58.7656L75.9828 59.056L75.9073 59.3466L76.2622 59.2496L76.6278 59.1636L77.0043 59.0881L77.3702 59.0346L77.7467 58.9807L78.1228 58.9376L78.4993 58.9056L78.8758 58.8841L79.2523 58.8732H79.6074H79.9728L80.3173 58.8946L80.6503 58.916L80.984 58.9376L81.2958 58.97L81.5969 59.0131V58.2276L81.1885 58.2491L80.7904 58.2601L80.4139 58.2706L80.0483 58.2601L79.7043 58.2491L79.3708 58.2171L79.0373 58.174L78.7252 58.1202L78.4242 58.0555L78.1228 57.9696L77.8433 57.8621L77.5529 57.7331L77.4133 57.6686L77.2733 57.5931L77.1443 57.5071L77.0043 57.4211L76.7352 57.2276L76.4667 57.0125ZM88.8681 71.4144H89.2122V68.9619L88.8681 68.8653V71.4144ZM89.535 71.4144L89.8681 71.5434V68.9619H89.535V71.4144ZM90.2127 71.5434H90.5566V69.0804H90.2127V71.5434ZM90.8686 71.5434H91.2126V69.1773L90.8686 69.0804V71.5434ZM91.5462 71.5434H91.8901V69.1773H91.5462V71.5434ZM92.2347 71.5434H92.6647V69.3064L92.2347 69.1773V71.5434ZM93.0092 71.6619H93.3532V69.3064H93.0092V71.6619ZM93.6652 71.6619H94.1276V69.3064H93.6652V71.6619ZM94.4503 71.6619L94.7837 71.7585V69.3064H94.4503V71.6619ZM95.1278 71.7585H95.4722V69.4244H95.1278V71.7585ZM95.9022 71.7585L96.2463 71.877V69.4244H95.9022V71.7585ZM138.172 69.5214H138.517V71.1994H138.172V69.5214ZM138.828 69.3064H139.173V71.1024H138.828V69.3064ZM133.236 62.7562L134.021 63.2183L134.817 63.7023L135.215 63.9498L135.602 64.2078L135.989 64.4767L136.376 64.7567L136.753 65.0468L137.129 65.3483L137.506 65.6598L137.871 65.9827L138.226 66.3268L138.581 66.6818L138.925 67.0583L139.269 67.4562L139.356 67.6174L139.431 67.8003L139.517 67.9939L139.603 68.2308L139.732 69.0694L139.861 69.9085L139.99 70.7474L140.119 71.5759L140.237 72.4145L140.367 73.243L140.485 74.0819L140.603 74.9206V75.2651V75.5875V75.8885V76.1685L140.614 76.3295L140.635 76.5125L140.668 76.7062L140.711 76.8996L140.754 77.0935L140.786 77.3086L140.818 77.513V77.7171V77.9756V78.2336V78.4811V78.7282V78.9865V79.2447V79.5026V79.7606L138.947 83.6327L138.42 84.1383L137.904 84.6332L137.635 84.8807L137.366 85.1062L137.086 85.3323L136.796 85.5368L136.645 85.6333L136.495 85.7302L136.322 85.8163L136.161 85.9023L135.989 85.9778L135.806 86.0528L135.623 86.1174L135.43 86.1818L135.225 86.2359L135.021 86.2897L134.795 86.3328L134.569 86.3649L134.343 86.3973L134.096 86.4187L133.838 86.4293H133.569H129.31L129.106 86.4508L128.912 86.4618H128.729H128.546L128.374 86.4508L128.213 86.4293L128.062 86.4079L127.912 86.3758L127.772 86.3433L127.643 86.3003L127.514 86.2573L127.395 86.2033L127.277 86.1498L127.159 86.0853L127.051 86.0208L126.954 85.9453L126.75 85.7843L126.567 85.6119L126.384 85.4292L126.212 85.2248L125.879 84.7732L125.513 84.2893H94.2242L93.6652 85.0958L93.1917 85.7518L92.9661 86.0208L92.7507 86.2683L92.6431 86.3863L92.5357 86.4834L92.4176 86.5908L92.3097 86.6769L92.1807 86.7628L92.0627 86.8489L91.9336 86.9244L91.7936 86.9888L91.6432 87.0638L91.4926 87.1178L91.3311 87.1823L91.1591 87.2363L90.9761 87.2793L90.7717 87.3329L90.5676 87.3758L90.3417 87.4084L89.8576 87.4833L89.3091 87.5479L88.6961 87.5264L88.0831 87.4943L87.4591 87.4513L86.8565 87.3974L86.5555 87.3544L86.2545 87.3113L85.964 87.2578L85.6735 87.2038L85.394 87.1393L85.1144 87.0638L84.8454 86.9888L84.5765 86.8918L84.3184 86.7952L84.071 86.6873L83.8345 86.5583L83.6084 86.4293L83.3825 86.2788L83.1675 86.1174L82.974 85.9453L82.7804 85.7628L82.6079 85.5582L82.4469 85.3433L82.2963 85.1062L82.1563 84.8593L82.038 84.5903L81.9304 84.3107L81.8444 84.0093L81.7694 83.6868L81.6184 82.9768L73.4657 80.2557L73.4767 80.4817L73.4441 80.6966L73.3906 80.9011L73.3041 81.0947L73.1967 81.2772L73.0676 81.4602L72.9282 81.6216L72.7556 81.7722L72.5731 81.9122L72.3687 82.0302L72.1536 82.1487L71.9277 82.2347L71.6912 82.3207L71.4546 82.3746L71.2071 82.4177L70.949 82.4497L70.6906 82.4607L70.4435 82.4497L70.1852 82.4177L69.9381 82.3638L69.6906 82.2883L69.454 82.1917L69.2171 82.0732L69.0021 81.9337L68.7976 81.7612L68.6041 81.5677L68.4211 81.3527L68.2705 81.1161L68.1311 80.8362L68.0125 80.5462L67.9156 80.2126L67.8511 79.8577L67.7975 79.6532L67.7546 79.4381L67.7115 79.2231L67.6685 78.9972L67.604 78.5241L67.561 78.0185L67.5181 77.4806L67.4855 76.9211L67.464 76.3295L67.453 75.7165V75.0715L67.4426 74.3935V73.6944V72.9525V72.1995L67.4316 71.4034L67.421 70.5863L67.41 69.7364L66.6035 67.6174L66.7325 64.3908L68.97 58.2276L71.8632 57.7865L72.6697 56.754L73.4767 55.7325L73.8747 55.2376L74.2832 54.743L74.7027 54.2589L75.1223 53.7749L75.5416 53.3014L75.9718 52.8284L76.4022 52.366L76.8433 51.914L77.2947 51.4729L77.7573 51.0324L78.2197 50.6019L78.7038 50.1719L78.8544 50.0428L79.0158 49.9244L79.1768 49.8059L79.3599 49.6983L79.5429 49.5908L79.7473 49.4939L79.9514 49.4079L80.1664 49.3219L80.3818 49.2469L80.6183 49.1714L80.8658 49.1069L81.1129 49.0423L81.3713 48.9884L81.6399 48.9349L81.9198 48.8918L82.2104 48.8488L82.8019 48.7733L83.4364 48.7088L84.1035 48.6553L84.813 48.6229L85.555 48.5908L86.319 48.5584L87.1255 48.5368L87.9752 48.5154L89.2446 48.5043L90.5031 48.4829L91.7611 48.4613L93.0092 48.4508L94.2352 48.4399H95.4722L96.6872 48.4293H97.9028H99.1074L100.312 48.4399H101.506L102.7 48.4508L103.883 48.4613L105.066 48.4829L106.239 48.5043L107.411 48.5154L107.938 48.5798L108.454 48.6339L108.938 48.6984L109.412 48.7629L109.874 48.8274L110.315 48.9023L110.745 48.9778L111.154 49.0639L111.552 49.1498L111.928 49.2359L112.305 49.3328L112.66 49.4294L113.004 49.5263L113.337 49.6338L113.649 49.7414L113.961 49.8599L114.262 49.9779L114.553 50.0964L114.832 50.2148L115.101 50.3439L115.359 50.4834L115.618 50.6129L115.865 50.7523L116.102 50.9029L116.338 51.0429L116.564 51.2043L116.779 51.3549L117.005 51.5163L117.425 51.8494L117.833 52.1939L124.201 57.7865L124.577 57.8836L124.943 57.9591L125.309 58.0126L125.674 58.0555L126.384 58.131L127.094 58.2276L127.46 58.2922L127.815 58.3785L127.987 58.4215L128.17 58.4861L128.353 58.5505L128.525 58.615L128.708 58.7011L128.89 58.7977L129.073 58.8946L129.256 59.0021L129.439 59.1311L129.622 59.2601L129.805 59.4111L129.998 59.5721L129.772 60.8091L129.858 60.8846L129.955 60.9597L130.063 61.0136L130.17 61.0781L130.375 61.1642L130.558 61.2501L130.73 61.3362L131.063 61.5297L131.493 61.7662L131.977 62.0351L132.44 62.3042L132.848 62.5302L133.128 62.6912L133.236 62.7562Z" fill="white"/>
<path fill-rule="evenodd" clip-rule="evenodd" d="M92.0085 104.038L78.0366 118.01L64.5059 104.038H68.4534L78.0366 113.75L87.6524 104.016L92.0085 104.038Z" fill="white"/>
<path fill-rule="evenodd" clip-rule="evenodd" d="M133.205 62.7793L137.002 59.2083L77.9954 0.169724L19.0645 59.2083L39.9199 79.8594L44.2439 79.8378L23.3239 59.1543L77.9954 4.37528L132.775 59.1543L130.537 61.2734L133.205 62.7793Z" fill="white"/>
<path fill-rule="evenodd" clip-rule="evenodd" d="M35.2741 63.4131L31.875 55.1524L32.7355 54.3029L41.0172 57.68L39.8127 58.8741L37.6832 57.992L35.6071 60.0681L36.4677 62.2191L35.2741 63.4131ZM34.9941 58.659L36.2421 57.4116L33.822 56.2495L34.9941 58.659ZM36.0051 51.0224L37.0806 49.9468L40.7807 53.6359L40.9207 53.7758L41.0712 53.905L41.2113 54.0124L41.3617 54.1094L41.4908 54.1844L41.6308 54.2384L41.7702 54.2919L41.8993 54.3135L42.0283 54.3243H42.1577L42.2758 54.3029L42.4048 54.2599L42.5232 54.206L42.6417 54.1309L42.7597 54.0449L42.8673 53.9479L42.9748 53.8295L43.0613 53.722L43.1258 53.604L43.1792 53.4748L43.2223 53.3564L43.2438 53.2379V53.1089L43.2333 52.9799L43.2117 52.84L43.1688 52.7108L43.1043 52.5714L43.0288 52.4314L42.9317 52.2915L42.8243 52.1519L42.7062 52.0013L42.5663 51.8503L38.8662 48.1613L39.9526 47.0858L43.6419 50.7749L43.8033 50.9363L43.9429 51.0979L44.0828 51.2589L44.2013 51.4093L44.3088 51.5709L44.4053 51.7109L44.4808 51.8613L44.5563 52.0013L44.6207 52.1949L44.6854 52.3884L44.7173 52.5819L44.7389 52.7754L44.7499 52.969V53.1734L44.7173 53.3669L44.6854 53.5714L44.6313 53.7758L44.5669 53.9695L44.4914 54.1629L44.3948 54.3349L44.2979 54.5074L44.1798 54.6794L44.0508 54.83L43.9214 54.9804L43.8139 55.0775L43.7063 55.1741L43.5988 55.26L43.4913 55.3355L43.3729 55.4105L43.2547 55.4754L43.1364 55.54L43.0178 55.5934L42.8998 55.6474L42.7707 55.6905L42.6417 55.7226L42.5124 55.755L42.3728 55.7764L42.2438 55.7979L42.1038 55.8085H41.9638H41.8133H41.6628L41.5227 55.787L41.3723 55.7655L41.2327 55.7334L41.0927 55.6795L40.9637 55.6365L40.8237 55.572L40.6947 55.5075L40.5548 55.4214L40.4152 55.3355L40.2752 55.2279L40.1357 55.1204L39.9957 54.9914L39.8452 54.862L39.6946 54.7115L36.0051 51.0224ZM47.6644 51.0224L42.8458 46.2037L41.7812 47.2687L40.7807 46.2577L43.9753 43.0521L44.9864 44.0633L43.9214 45.1282L48.74 49.9468L47.6644 51.0224ZM47.4604 39.3631L47.6753 39.1586L47.8904 38.9866L48.1164 38.8145L48.3528 38.6746L48.6004 38.535L48.8585 38.4275L49.1164 38.3305L49.3854 38.2444L49.665 38.18L49.9339 38.137L50.2135 38.1045L50.4935 38.094L50.762 38.1045L51.042 38.137L51.3105 38.18L51.5905 38.2444L51.8594 38.3199L52.128 38.4164L52.3755 38.535L52.6231 38.664L52.8595 38.804L53.0855 38.965L53.3006 39.148L53.505 39.3415L53.6986 39.5566L53.8815 39.772L54.0425 39.9975L54.1931 40.2341L54.3225 40.4816L54.4406 40.7291L54.5376 40.998L54.6126 41.267L54.6771 41.5466L54.7202 41.8155L54.7526 42.0951L54.7636 42.3746L54.7526 42.6436L54.7202 42.9231L54.6771 43.1921L54.6126 43.4717L54.5266 43.7407L54.43 44.0096L54.3225 44.2571L54.1931 44.5042L54.0425 44.7411L53.8815 44.9667L53.6986 45.1822L53.505 45.3972L53.2895 45.5907L53.0746 45.7737L52.8489 45.9347L52.612 46.0853L52.3651 46.2147L52.1065 46.3327L51.8485 46.4298L51.5795 46.5047L51.3 46.5692L51.0205 46.6122L50.7515 46.6447L50.472 46.6557L50.192 46.6447L49.9235 46.6232L49.6435 46.5692L49.364 46.5047L49.095 46.4298L48.8369 46.3327L48.5789 46.2147L48.3314 46.0853L48.0949 45.9457L47.869 45.7737L47.6539 45.6013L47.4494 45.4077L47.2558 45.1927L47.073 44.9777L46.9114 44.7517L46.7609 44.5152L46.6319 44.2787L46.5244 44.0202L46.4274 43.7621L46.3414 43.4932L46.2769 43.2136L46.2339 42.9342L46.2124 42.6651L46.2018 42.3856L46.2124 42.1167L46.2448 41.8371L46.2879 41.5572L46.3524 41.2886L46.4383 41.0086L46.5354 40.7505L46.6428 40.4926L46.7719 40.2557L46.9224 40.0191L47.0839 39.7935L47.2664 39.5675L47.4604 39.3631ZM48.5249 40.385L48.3959 40.5246L48.2775 40.6646L48.17 40.8151L48.0734 40.9656L47.9874 41.127L47.9119 41.2886L47.8474 41.4606L47.8043 41.6327L47.7614 41.8155L47.729 41.9981L47.7074 42.1702V42.3532V42.5361L47.729 42.7081L47.7614 42.8911L47.8043 43.0736L47.858 43.2462L47.9229 43.4182L47.9874 43.5792L48.0734 43.7407L48.17 43.9021L48.2775 44.0417L48.3959 44.1926L48.5249 44.3216L48.6649 44.4506L48.8044 44.5687L48.9554 44.6767L49.1164 44.7732L49.267 44.8591L49.4395 44.9346L49.6115 44.9991L49.7835 45.0527L49.9664 45.0957L50.149 45.1282L50.332 45.1497H50.504H50.6869L50.8699 45.1282L51.042 45.0957L51.2246 45.0527L51.4075 45.0097L51.5691 44.9452L51.7411 44.8701L51.9025 44.7842L52.053 44.6871L52.1925 44.5797L52.3435 44.4612L52.4725 44.3322L52.6016 44.2032L52.7196 44.0633L52.8165 43.9127L52.9136 43.7621L52.9995 43.6006L53.0746 43.4396L53.1391 43.2676L53.193 43.0952L53.2251 42.9126L53.2575 42.7297L53.2791 42.5467V42.3746V42.1916L53.2575 42.0092L53.2251 41.8371L53.193 41.6541L53.1391 41.4711L53.0746 41.2991L52.9995 41.1376L52.9136 40.9766L52.8165 40.826L52.709 40.675L52.5906 40.5356L52.4616 40.3956L52.322 40.2665L52.182 40.1481L52.0315 40.0406L51.881 39.944L51.7195 39.858L51.5475 39.7826L51.3754 39.718L51.203 39.6641L51.0205 39.6321L50.8485 39.5996L50.6655 39.578H50.4824H50.3104L50.1275 39.5996L49.9449 39.621L49.7725 39.6641L49.5899 39.718L49.418 39.7826L49.2564 39.858L49.095 39.944L48.9444 40.0406L48.794 40.1375L48.654 40.2557L48.5249 40.385ZM55.3656 39.9655L56.4951 38.836L56.581 38.9115L56.6672 38.976L56.7641 39.0405L56.8606 39.0835L56.9577 39.1156L57.0543 39.137L57.1616 39.148H57.2587L57.3661 39.137L57.4736 39.1156L57.5707 39.0835L57.6672 39.0405L57.7642 38.9866L57.8611 38.9221L57.9577 38.847L58.0437 38.7715L58.1511 38.653L58.2376 38.535L58.3021 38.406L58.3557 38.266L58.3882 38.1261L58.4096 37.9865L58.3987 37.8575L58.3772 37.7175L58.3341 37.5885L58.2806 37.47L58.2052 37.3625L58.1083 37.255L58.0222 37.1795L57.9472 37.115L57.8611 37.0614L57.7752 37.0184L57.6781 36.9755L57.5922 36.9539L57.4952 36.9429H57.3987L57.3016 36.9539L57.1942 36.9645L57.0971 36.986L56.9896 37.0074L56.7641 37.0721L56.5272 37.169L56.28 37.2765L56.0327 37.3839L55.7852 37.4914L55.527 37.599L55.2691 37.6959L55.043 37.7605L54.9247 37.782L54.8281 37.8035L54.7202 37.8141L54.6236 37.825H54.5051L54.3976 37.8141L54.29 37.8035L54.1717 37.782L54.0641 37.7605L53.9566 37.728L53.8386 37.6959L53.7305 37.653L53.6231 37.599L53.5156 37.5455L53.4191 37.4914L53.322 37.427L53.2251 37.3625L53.1285 37.298L53.0426 37.2225L52.9671 37.1366L52.8595 37.029L52.7626 36.9109L52.6765 36.7925L52.6016 36.6635L52.5261 36.5235L52.4725 36.3839L52.4186 36.244L52.3755 36.0934L52.3435 35.943L52.322 35.7814L52.311 35.631V35.4804L52.322 35.3294L52.3325 35.1684L52.3651 35.018L52.397 34.867L52.451 34.7164L52.5045 34.566L52.569 34.4264L52.6445 34.2864L52.7306 34.1574L52.8275 34.0283L52.9241 33.9099L53.0316 33.7914L53.1501 33.6734L53.2791 33.5765L53.4081 33.4799L53.537 33.3934L53.677 33.3183L53.817 33.2429L53.9676 33.1894L54.118 33.1354L54.2686 33.1033L54.419 33.0708L54.5696 33.0494H54.7202H54.871L55.0216 33.0604L55.1826 33.0818L55.3336 33.1139L55.4842 33.157L55.6346 33.1998L55.7746 33.2645L55.9142 33.329L56.0541 33.4153L56.1831 33.5014L56.3121 33.5979L56.4411 33.7055L55.3121 34.8239L55.2366 34.7595L55.1611 34.706L55.0751 34.6629L55.0001 34.6199L54.9141 34.5984L54.8386 34.5769L54.7526 34.566H54.6665H54.591L54.5051 34.5769L54.43 34.6089L54.3545 34.6414L54.2796 34.6734L54.2041 34.7274L54.1286 34.7809L54.0641 34.8454L53.9996 34.9209L53.9351 34.9854L53.8815 35.0608L53.8491 35.136L53.817 35.2114L53.7846 35.2974L53.7736 35.3729L53.7631 35.4479V35.5339L53.7736 35.6094L53.7955 35.6845L53.8276 35.7599L53.8601 35.8351L53.9031 35.8999L53.9566 35.975L54.0211 36.0395L54.0856 36.0934L54.1501 36.1469L54.2146 36.19L54.29 36.2224L54.3655 36.2544L54.4406 36.276L54.5266 36.287H54.602H54.6881L54.7851 36.276L54.8816 36.2544L54.9891 36.2224L55.2041 36.1469L55.4411 36.0395L55.796 35.8675L56.1291 35.7275L56.4521 35.6094L56.7641 35.5125L56.9147 35.4694L57.0651 35.4373L57.2157 35.4159L57.3661 35.4049H57.5167H57.6672L57.8181 35.4159L57.9687 35.4373L58.1083 35.4804L58.2592 35.5235L58.3987 35.5769L58.5492 35.6524L58.6892 35.7385L58.8182 35.8351L58.9582 35.943L59.0871 36.072L59.2057 36.201L59.3237 36.3405L59.4208 36.4805L59.5173 36.6205L59.5928 36.7709L59.6683 36.9325L59.7218 37.0935L59.7757 37.2656L59.8077 37.4379L59.8401 37.61L59.8507 37.782L59.8617 37.954L59.8507 38.1155L59.8293 38.2875L59.8077 38.4595L59.7648 38.6315L59.7111 38.804L59.6463 38.965L59.5712 39.1266L59.4957 39.277L59.3992 39.4276L59.2916 39.5675L59.1842 39.7071L59.0547 39.8365L58.9582 39.9331L58.8507 40.0191L58.7537 40.1051L58.6462 40.1806L58.5386 40.2557L58.4202 40.3205L58.3127 40.385L58.1947 40.4385L58.0762 40.4816L57.9577 40.5246L57.8397 40.5676L57.7211 40.6001L57.5922 40.6215L57.4736 40.643L57.3447 40.6536L57.2266 40.6646H57.0971H56.9681L56.8501 40.6536L56.7212 40.6321L56.6026 40.6106L56.4841 40.5785L56.3661 40.546L56.2476 40.503L56.1291 40.4601L56.0111 40.4065L55.9035 40.3526L55.7852 40.2881L55.6776 40.2126L55.5701 40.1375L55.4626 40.0516L55.3656 39.9655ZM61.8298 36.857L56.0001 31.0274L59.1408 27.8868L60.1521 28.8978L58.0866 30.9519L59.5173 32.3824L61.4857 30.4034L62.4968 31.4143L60.5178 33.3829L61.9052 34.7704L63.9594 32.7054L64.9704 33.7164L61.8298 36.857ZM66.143 32.5439L60.3133 26.7142L62.0773 24.9502L62.2278 24.8106L62.3783 24.6706L62.5289 24.5416L62.6688 24.4341L62.8192 24.3266L62.9592 24.2406L63.0883 24.1651L63.2283 24.1007L63.3678 24.0466L63.4969 23.9931L63.6477 23.9607L63.7873 23.9286L63.9379 23.9176L64.0889 23.9072H64.2393H64.4003L64.6264 23.9392L64.8413 23.9931L65.0568 24.0576L65.2609 24.1437L65.4543 24.2406L65.6373 24.3586L65.8094 24.4877L65.9814 24.6492L66.1323 24.8106L66.2719 24.9826L66.3903 25.1763L66.5088 25.3807L66.6054 25.5957L66.6913 25.8001L66.7454 26.0042L66.7884 26.2086L66.8098 26.4347L66.8205 26.6606L66.8098 26.7682L66.7989 26.8757L66.7774 26.9832L66.756 27.0907L66.6913 27.3057L66.6054 27.5422L66.4869 27.7897L66.3365 28.0482L70.0689 28.6182L68.7565 29.9303L64.9919 29.2312L67.2294 31.4574L66.143 32.5439ZM64.1854 28.4137L64.8523 27.7468L64.9704 27.6287L65.0674 27.4993L65.1533 27.3812L65.2288 27.2522L65.2825 27.1336L65.3253 27.0047L65.3578 26.8757L65.3684 26.7467V26.6178L65.3578 26.4992L65.3363 26.3702L65.2933 26.2517L65.2394 26.1442L65.1643 26.0258L65.0888 25.9182L64.9919 25.8107L64.9168 25.7462L64.8523 25.6927L64.7768 25.6387L64.7123 25.5957L64.6374 25.5527L64.5513 25.5201L64.4758 25.4987L64.4003 25.4773L64.3144 25.4557L64.2283 25.4452H64.1533L64.0673 25.4557L63.9808 25.4667L63.8948 25.4773L63.8198 25.4987L63.7338 25.5311L63.6477 25.5632L63.5618 25.6066L63.4753 25.6497L63.4004 25.7032L63.2388 25.8217L63.0777 25.9721L62.4107 26.6392L64.1854 28.4137ZM72.4891 26.1982L64.4003 22.6271L65.5408 21.487L71.5425 24.3586L68.6705 18.3679L69.8 17.2275L73.3711 25.3162L72.4891 26.1982ZM76.4792 22.2076L70.6495 16.3779L71.736 15.2915L77.5656 21.1211L76.4792 22.2076ZM76.7697 18.5506L77.8992 17.4319L77.9852 17.5074L78.0817 17.5719L78.1678 17.6256L78.2647 17.6685L78.3617 17.701L78.4692 17.7225L78.5657 17.7331H78.6732L78.7812 17.7225L78.8777 17.701L78.9853 17.6685L79.0822 17.6256L79.1787 17.5719L79.2756 17.518L79.3617 17.4429L79.4587 17.357L79.5552 17.2385L79.6413 17.1199L79.7168 16.991L79.7707 16.8515L79.8027 16.7114L79.8137 16.5824V16.4424L79.7923 16.3134L79.7492 16.1845L79.6952 16.0555L79.6093 15.9479L79.5232 15.8404L79.4373 15.7649L79.3512 15.7004L79.2652 15.6464L79.1787 15.6035L79.0928 15.5714L78.9962 15.5498L78.9102 15.5284H78.8132L78.7167 15.539L78.6088 15.5498L78.5012 15.5714L78.3937 15.5929L78.1788 15.668L77.9313 15.7539L77.6947 15.8619L77.4472 15.9694L77.1891 16.0769L76.9312 16.1845L76.6836 16.281L76.4471 16.3459L76.3396 16.3779L76.2317 16.3889L76.1351 16.3995L76.0382 16.4104H75.92L75.8126 16.3995L75.6941 16.3889L75.5866 16.3674L75.4791 16.3459L75.3607 16.3134L75.2531 16.281L75.1456 16.2379L75.0381 16.1845L74.9306 16.1414L74.8232 16.0769L74.7261 16.0229L74.6401 15.9584L74.5431 15.8835L74.4571 15.8079L74.3712 15.7324L74.2741 15.6145L74.1775 15.496L74.0806 15.3778L74.0055 15.2485L73.941 15.1089L73.8766 14.9689L73.8335 14.8289L73.7901 14.6784L73.758 14.5279L73.7366 14.3774L73.7256 14.2269V14.0655V13.9149L73.7471 13.7643L73.7796 13.6029L73.8117 13.4523L73.8656 13.3018L73.9196 13.1513L73.9841 13.0113L74.0592 12.8713L74.1451 12.7424L74.2312 12.6134L74.3391 12.4954L74.4465 12.3768L74.5647 12.2693L74.6936 12.1618L74.8232 12.0649L74.9521 11.9788L75.0916 11.9038L75.2316 11.8388L75.3717 11.7743L75.5221 11.7314L75.6727 11.6884L75.8231 11.6563L75.9737 11.6453L76.1351 11.6349H76.2857L76.4361 11.6453L76.5867 11.6668L76.7371 11.6993L76.8987 11.7423L77.0387 11.7959L77.1891 11.8498L77.3291 11.9253L77.4582 12.0003L77.5976 12.0863L77.7268 12.1834L77.8452 12.2908L76.7267 13.4094L76.6512 13.3449L76.5651 13.2909L76.4901 13.2478L76.4041 13.2158L76.3286 13.1833L76.2426 13.1619L76.1672 13.1513H76.0812H75.9951L75.92 13.1729L75.8447 13.1943L75.7586 13.2264L75.6831 13.2694L75.6187 13.3123L75.5435 13.3664L75.4681 13.4308L75.4036 13.5064L75.3501 13.5814L75.2962 13.6569L75.2531 13.7318L75.2207 13.8074L75.1991 13.8828L75.1886 13.9579L75.1776 14.0439V14.1194L75.1886 14.1945L75.2101 14.2699L75.2316 14.3449L75.2746 14.4204L75.3176 14.4958L75.3717 14.5604L75.4361 14.6248L75.4897 14.6893L75.5651 14.7324L75.6296 14.7754L75.7047 14.8185L75.7801 14.8399L75.8556 14.8614L75.9306 14.8723H76.0166H76.1027L76.1996 14.8614L76.2967 14.8399L76.3932 14.8185L76.6082 14.7324L76.8557 14.6248L77.2107 14.4634L77.5441 14.3128L77.8667 14.1945L78.1678 14.0979L78.3187 14.0655L78.4692 14.0334L78.6197 14.0118L78.7702 13.9904H78.9207H79.0712L79.2222 14.0118L79.3727 14.0334L79.5232 14.0655L79.6737 14.1083L79.8137 14.1729L79.9533 14.2373L80.0933 14.3234L80.2333 14.4204L80.3623 14.5389L80.5018 14.6569L80.6202 14.7859L80.7277 14.9259L80.8353 15.066L80.9212 15.2164L81.0073 15.367L81.0718 15.5174L81.1363 15.6894L81.1903 15.851L81.2228 16.0229L81.2548 16.1949L81.2658 16.3674V16.5395V16.7114L81.2442 16.8834L81.2118 17.045L81.1688 17.217L81.1258 17.389L81.0612 17.5504L80.9859 17.7115L80.8998 17.8625L80.8138 18.013L80.7063 18.1525L80.5878 18.2925L80.4698 18.4324L80.3623 18.5185L80.2653 18.615L80.1578 18.6906L80.0607 18.7765L79.9427 18.841L79.8352 18.9054L79.7168 18.97L79.6093 19.024L79.4907 19.0775L79.3727 19.1205L79.2437 19.1529L79.1252 19.185L79.0067 19.2066L78.8777 19.2281L78.7598 19.2391L78.6302 19.25H78.5122H78.3832L78.2541 19.2391L78.1357 19.2175L78.0172 19.196L77.8992 19.1745L77.7702 19.1315L77.6517 19.0991L77.5332 19.0454L77.4256 18.9916L77.3077 18.9381L77.1997 18.8735L77.0922 18.7981L76.9846 18.7226L76.8771 18.6475L76.7697 18.5506Z" fill="white"/>
</svg>
