<svg width="127" height="122" viewBox="0 0 127 122" fill="none" xmlns="http://www.w3.org/2000/svg">
<path fill-rule="evenodd" clip-rule="evenodd" d="M80.6298 16.826C71.1506 12.6023 60.5601 11.556 50.4378 13.843C40.3154 16.13 31.2035 21.6279 24.461 29.5166C17.7185 37.4053 13.7067 47.2622 13.0239 57.6172C12.3411 67.9722 15.0238 78.2706 20.6721 86.9763C26.3204 95.6821 34.6315 102.329 44.3659 105.925C54.1003 109.522 64.7365 109.875 74.6882 106.932C84.6398 103.99 93.3737 97.9096 99.5873 89.5979C105.801 81.2862 109.161 71.1886 109.167 60.8111V55.7625C109.167 52.3384 111.943 49.5625 115.367 49.5625C118.791 49.5625 121.567 52.3384 121.567 55.7625V60.8147L121.567 60.8182C121.56 73.8697 117.333 86.5691 109.519 97.0225C101.704 107.476 90.7199 115.123 78.204 118.824C65.6881 122.524 52.3113 122.08 40.0686 117.557C27.8259 113.034 17.3733 104.674 10.2697 93.7254C3.16603 82.7764 -0.208018 69.8245 0.650727 56.8013C1.50947 43.7781 6.55501 31.3814 15.0348 21.46C23.5147 11.5386 34.9744 4.62417 47.705 1.74786C60.4356 -1.12845 73.755 0.187505 85.6766 5.49946C88.8043 6.89309 90.21 10.5584 88.8164 13.6861C87.4228 16.8138 83.7575 18.2196 80.6298 16.826Z" fill="#142756"/>
<path fill-rule="evenodd" clip-rule="evenodd" d="M125.18 7.53957C127.602 9.96082 127.602 13.8864 125.18 16.3077L65.4242 76.0639C63.0029 78.4851 59.0773 78.4851 56.656 76.0639L40.3589 59.7667C37.9377 57.3455 37.9377 53.4199 40.3589 50.9986C42.7802 48.5774 46.7058 48.5774 49.127 50.9986L61.0401 62.9117L116.412 7.53957C118.833 5.11832 122.759 5.11832 125.18 7.53957Z" fill="#142756"/>
</svg>
