<svg width="65" height="65" viewBox="0 0 65 65" fill="none" xmlns="http://www.w3.org/2000/svg">
<circle cx="32.5" cy="32.5" r="32.5" fill="#142756"/>
<path d="M24.3602 49C25.7186 49.0005 27.0536 48.6467 28.2328 47.9737L28.3991 47.8801C36.0662 43.5024 42.4805 37.2354 47.0295 29.678L47.8966 28.2353C48.7848 26.7605 49.1528 25.0313 48.9421 23.3234C48.7313 21.6155 47.954 20.0272 46.7338 18.8115L45.006 17.0869C43.5542 15.6377 41.1929 15.6377 39.7423 17.0869L35.9357 20.8865C35.3628 21.461 34.9932 22.2062 34.8826 23.0093C34.7721 23.8124 34.9268 24.6295 35.3233 25.3369L36.7541 27.873C36.7841 27.9264 36.7959 27.9881 36.7875 28.0488C36.7792 28.1094 36.7512 28.1657 36.7079 28.209L28.2328 36.6685C28.1887 36.7116 28.1318 36.7392 28.0707 36.7473C28.0095 36.7554 27.9474 36.7434 27.8936 36.7133L25.3567 35.2864L25.3554 35.2851C24.6466 34.8898 23.828 34.7357 23.0236 34.8459C22.2192 34.9562 21.4726 35.325 20.8968 35.8964L17.0889 39.6986C15.637 41.1479 15.637 43.5048 17.0889 44.9527L18.8932 46.7524C19.6118 47.4673 20.4645 48.0337 21.4026 48.4194C22.3406 48.8051 23.3457 49.0023 24.3602 49ZM42.3742 18.6349C42.6514 18.6349 42.9285 18.7403 43.1397 18.9511L44.8675 20.6744C45.6705 21.4745 46.1822 22.5199 46.3209 23.644C46.4597 24.7681 46.2175 25.9063 45.633 26.877L44.7658 28.3197C40.4509 35.489 34.3665 41.4343 27.0937 45.5877L26.9274 45.6813C24.9133 46.8314 22.3791 46.506 20.7609 44.8882L18.9566 43.0885C18.856 42.9882 18.7762 42.869 18.7218 42.7379C18.6674 42.6068 18.6393 42.4663 18.6393 42.3244C18.6393 42.1824 18.6674 42.0419 18.7218 41.9108C18.7762 41.7797 18.856 41.6606 18.9566 41.5602L22.7645 37.758C22.9321 37.5917 23.1494 37.4845 23.3836 37.4527C23.6177 37.4208 23.8559 37.466 24.0619 37.5815L26.5988 39.0083C27.155 39.3191 27.7976 39.4406 28.4292 39.3543C29.0608 39.268 29.647 38.9787 30.0991 38.53L38.5742 30.0706C39.0241 29.6199 39.3143 29.0349 39.4008 28.4045C39.4873 27.7741 39.3653 27.1328 39.0533 26.578L37.6225 24.0432C37.5076 23.8374 37.4628 23.5999 37.495 23.3665C37.5271 23.1332 37.6344 22.9165 37.8007 22.7494L41.6086 18.9511C41.7091 18.8507 41.8284 18.7711 41.9598 18.7168C42.0912 18.6626 42.232 18.6347 42.3742 18.6349Z" fill="white"/>
</svg>
