<?xml version="1.0" encoding="UTF-8"?>
<svg id="Vrstva_2" data-name="Vrstva 2" xmlns="http://www.w3.org/2000/svg" viewBox="0 0 156.72 160.24">
  <defs>
    <style>
      .cls-1 {
        fill: #fff;
      }
    </style>
  </defs>
  <g id="Vrstva_1-2" data-name="Vrstva 1">
    <path class="cls-1" d="M90.13,68.25c17.07-12.99,33.34-30.09,40.02-50.97,9.27,1.79,24.33,11.5,25.9,21.53,2.72,17.37-3.58,46.4-4.93,64.95-.82,11.34,1.37,21.37-2.3,32.7-7.26,22.42-17.88.75-21.01-10.41-4.83-17.22-1.22-35.3-3.7-52.8-1.73-.45-2,.72-3,1.49-9.2,7.04-17.49,16.94-27.87,23.13-18.08,10.8-18.7-7.15-24.6-19.65-1.16-2.46-8.68-16.94-10.02-16.96-1.57.92-1.19,2.14-1.52,3.46-6.81,27.59-8.43,51.12-22.81,77.19-7.54,13.68-19.27,16.68-34.17,18.33-1.6-1.61,14.4-37.03,16.27-42.22,7.4-20.6,15.25-48.49,16.72-70.28.84-12.42-1.4-27.04-.01-39.01,1.21-10.44,16.12-10.17,23.16-6.12,10.02,5.76,22.04,36.45,27.03,47.97,2.5,5.77,4.65,11.79,6.84,17.68Z"/>
  </g>
</svg>